<?xml version="1.0" encoding="UTF-8"?>
<svg id="Layer_1" xmlns="http://www.w3.org/2000/svg" version="1.1" viewBox="0 0 250 250">
  <!-- Generator: Adobe Illustrator 30.2.1, SVG Export Plug-In . SVG Version: 2.1.1 Build 1)  -->
  <defs>
    <style>
      .st0 {
        fill: #684487;
        stroke: #32094f;
        stroke-miterlimit: 10;
        stroke-width: 9.7px;
      }

      .st1 {
        fill: #32094f;
      }
    </style>
  </defs>
  <g id="btright-norm">
    <path class="st0" d="M4.9,198V52h165.5c16.1,0,29.2,13.1,29.2,29.2v87.6c0,16.1-13.1,29.2-29.2,29.2H4.9Z"/>
    <g>
      <path class="st1" d="M60.8,107.3c-4.8-9.6,3.6-12.9,3.4-14.1s-.2-.9-.5-1.7c-1.8-4.7,1.5-11.8,7.2-12.2,9.2-.7,18.1-.4,27.3-.2,8.8.2,17.2,1.9,25.5,4.9v48.8s-7.6,6.7-7.6,6.7c-5,4.4-8.2,9.7-10.3,16-1.1,3.4-2.5,6.6-3.8,9.9-1.1,2.9-3.5,5-6.2,5.4-15.2,2-8.5-23.6-7.1-32.2h-21c-3.4-.2-5.9-2.9-7.2-4.9-2.2-3.4-.9-6.9,0-10-2.1-2.6-5.1-5.4-4.2-9.3.6-2.7,2.4-5.1,4.4-7.2Z"/>
      <path class="st1" d="M145.6,85.2c1.6,0,2.6,1.4,2.7,2.7v39.9c0,1.7-1.1,2.9-2.8,2.9h-16.3s0-45.5,0-45.5h16.4Z"/>
    </g>
  </g>
</svg>